<mxfile host="app.diagrams.net" modified="2023-10-17T13:30:51.779Z" agent="Mozilla/5.0 (Macintosh; Intel Mac OS X 10_15_7) AppleWebKit/537.36 (KHTML, like Gecko) Chrome/117.0.0.0 Safari/537.36" etag="IezF87HDxTstME6v1a4D" version="22.0.4" type="github">
  <diagram name="Page-1" id="13e1069c-82ec-6db2-03f1-153e76fe0fe0">
    <mxGraphModel dx="2374" dy="675" grid="1" gridSize="10" guides="1" tooltips="1" connect="1" arrows="1" fold="1" page="1" pageScale="1" pageWidth="1100" pageHeight="850" background="none" math="0" shadow="0">
      <root>
        <mxCell id="0" />
        <mxCell id="1" parent="0" />
        <mxCell id="4-Hh0vucxxHI_G5QS-2U-27" value="" style="endArrow=none;dashed=1;html=1;rounded=0;" edge="1" parent="1">
          <mxGeometry width="50" height="50" relative="1" as="geometry">
            <mxPoint x="678" y="660" as="sourcePoint" />
            <mxPoint x="680" y="140" as="targetPoint" />
          </mxGeometry>
        </mxCell>
        <mxCell id="7baba1c4bc27f4b0-8" value="Order Aggregation&lt;br&gt;Service" style="shape=umlLifeline;perimeter=lifelinePerimeter;whiteSpace=wrap;html=1;container=1;collapsible=0;recursiveResize=0;outlineConnect=0;rounded=1;shadow=0;comic=0;labelBackgroundColor=none;strokeWidth=1;fontFamily=Verdana;fontSize=12;align=center;size=60;" parent="1" vertex="1">
          <mxGeometry x="110" y="80" width="100" height="580" as="geometry" />
        </mxCell>
        <mxCell id="7baba1c4bc27f4b0-9" value="" style="html=1;points=[];perimeter=orthogonalPerimeter;rounded=0;shadow=0;comic=0;labelBackgroundColor=none;strokeWidth=1;fontFamily=Verdana;fontSize=12;align=center;" parent="7baba1c4bc27f4b0-8" vertex="1">
          <mxGeometry x="45" y="100" width="10" height="440" as="geometry" />
        </mxCell>
        <mxCell id="4-Hh0vucxxHI_G5QS-2U-37" value="&lt;pre style=&quot;font-family: Menlo, monospace; line-height: 40%;&quot;&gt;&lt;pre style=&quot;border-color: var(--border-color); font-family: Menlo, monospace; line-height: 40%;&quot;&gt;Return 해당 구를 갖고 &lt;/pre&gt;&lt;pre style=&quot;border-color: var(--border-color); font-family: Menlo, monospace; line-height: 40%;&quot;&gt;있는 전체 유저 정보&lt;/pre&gt;&lt;/pre&gt;" style="html=1;verticalAlign=bottom;endArrow=block;labelBackgroundColor=none;fontFamily=Verdana;fontSize=12;edgeStyle=elbowEdgeStyle;elbow=vertical;entryX=1.2;entryY=0.317;entryDx=0;entryDy=0;entryPerimeter=0;align=center;" edge="1" parent="7baba1c4bc27f4b0-8">
          <mxGeometry x="-0.0063" relative="1" as="geometry">
            <mxPoint x="215" y="240" as="sourcePoint" />
            <mxPoint x="52.5" y="239.48000000000002" as="targetPoint" />
            <Array as="points">
              <mxPoint x="161.5" y="240" />
            </Array>
            <mxPoint as="offset" />
          </mxGeometry>
        </mxCell>
        <mxCell id="4-Hh0vucxxHI_G5QS-2U-1" value="User&lt;br&gt;Service" style="shape=umlLifeline;perimeter=lifelinePerimeter;whiteSpace=wrap;html=1;container=1;collapsible=0;recursiveResize=0;outlineConnect=0;rounded=1;shadow=0;comic=0;labelBackgroundColor=none;strokeWidth=1;fontFamily=Verdana;fontSize=12;align=center;size=60;" vertex="1" parent="1">
          <mxGeometry x="280" y="80" width="100" height="580" as="geometry" />
        </mxCell>
        <mxCell id="4-Hh0vucxxHI_G5QS-2U-2" value="" style="html=1;points=[];perimeter=orthogonalPerimeter;rounded=0;shadow=0;comic=0;labelBackgroundColor=none;strokeWidth=1;fontFamily=Verdana;fontSize=12;align=center;" vertex="1" parent="4-Hh0vucxxHI_G5QS-2U-1">
          <mxGeometry x="45" y="100" width="10" height="440" as="geometry" />
        </mxCell>
        <mxCell id="4-Hh0vucxxHI_G5QS-2U-9" value="Order&lt;br&gt;Service" style="shape=umlLifeline;perimeter=lifelinePerimeter;whiteSpace=wrap;html=1;container=1;collapsible=0;recursiveResize=0;outlineConnect=0;rounded=1;shadow=0;comic=0;labelBackgroundColor=none;strokeWidth=1;fontFamily=Verdana;fontSize=12;align=center;size=60;" vertex="1" parent="1">
          <mxGeometry x="454" y="80" width="100" height="580" as="geometry" />
        </mxCell>
        <mxCell id="4-Hh0vucxxHI_G5QS-2U-10" value="" style="html=1;points=[];perimeter=orthogonalPerimeter;rounded=0;shadow=0;comic=0;labelBackgroundColor=none;strokeWidth=1;fontFamily=Verdana;fontSize=12;align=center;" vertex="1" parent="4-Hh0vucxxHI_G5QS-2U-9">
          <mxGeometry x="45" y="100" width="10" height="440" as="geometry" />
        </mxCell>
        <mxCell id="4-Hh0vucxxHI_G5QS-2U-17" value="&lt;p style=&quot;line-height: 60%;&quot;&gt;&lt;/p&gt;&lt;pre style=&quot;font-size: 9pt; font-family: Menlo, monospace; line-height: 50%;&quot;&gt;&lt;pre style=&quot;border-color: var(--border-color); font-size: 9pt; font-family: Menlo, monospace; line-height: 50%;&quot;&gt;&lt;font style=&quot;border-color: var(--border-color);&quot; face=&quot;Menlo, monospace&quot;&gt;/orders/aggregation/&lt;/font&gt;&lt;/pre&gt;&lt;pre style=&quot;border-color: var(--border-color); font-size: 9pt; font-family: Menlo, monospace; line-height: 50%;&quot;&gt;&lt;font style=&quot;border-color: var(--border-color);&quot; face=&quot;Menlo, monospace&quot;&gt;get-order-cnt-sum-by-address&lt;span style=&quot;color: rgb(195, 206, 227); background-color: rgb(38, 50, 56); border-color: var(--border-color);&quot;&gt;&lt;br style=&quot;border-color: var(--border-color);&quot;&gt;&lt;/span&gt;&lt;/font&gt;&lt;/pre&gt;&lt;/pre&gt;&lt;p&gt;&lt;/p&gt;" style="html=1;verticalAlign=bottom;endArrow=block;labelBackgroundColor=none;fontFamily=Verdana;fontSize=12;edgeStyle=elbowEdgeStyle;elbow=vertical;" edge="1" parent="1">
          <mxGeometry relative="1" as="geometry">
            <mxPoint x="-70" y="210" as="sourcePoint" />
            <mxPoint x="154" y="210" as="targetPoint" />
            <Array as="points">
              <mxPoint x="55" y="210" />
            </Array>
            <mxPoint as="offset" />
          </mxGeometry>
        </mxCell>
        <mxCell id="4-Hh0vucxxHI_G5QS-2U-19" value="&lt;pre style=&quot;font-size: 9pt; font-family: Menlo, monospace;&quot;&gt;&lt;pre style=&quot;border-color: var(--border-color); font-size: 9pt; font-family: Menlo, monospace;&quot;&gt;/user/address&lt;/pre&gt;&lt;/pre&gt;" style="html=1;verticalAlign=bottom;endArrow=block;labelBackgroundColor=none;fontFamily=Verdana;fontSize=12;edgeStyle=elbowEdgeStyle;elbow=vertical;entryX=0.1;entryY=0.069;entryDx=0;entryDy=0;entryPerimeter=0;exitX=0.9;exitY=0.141;exitDx=0;exitDy=0;exitPerimeter=0;" edge="1" parent="1" source="7baba1c4bc27f4b0-9">
          <mxGeometry x="-0.0024" relative="1" as="geometry">
            <mxPoint x="170" y="240" as="sourcePoint" />
            <mxPoint x="330" y="240.36" as="targetPoint" />
            <Array as="points">
              <mxPoint x="280" y="240" />
            </Array>
            <mxPoint as="offset" />
          </mxGeometry>
        </mxCell>
        <mxCell id="4-Hh0vucxxHI_G5QS-2U-22" value="&lt;pre style=&quot;font-size: 9pt; font-family: Menlo, monospace;&quot;&gt;&lt;pre style=&quot;border-color: var(--border-color); font-size: 9pt; font-family: Menlo, monospace; line-height: 130%;&quot;&gt;&lt;div style=&quot;&quot;&gt;&lt;span style=&quot;font-size: 9pt; background-color: initial; white-space-collapse: collapse;&quot;&gt;Selet 해당 유저와 같은 구를&lt;/span&gt;&lt;/div&gt;가지고 있는 전체 유저 정보&lt;/pre&gt;&lt;/pre&gt;" style="html=1;verticalAlign=bottom;endArrow=block;labelBackgroundColor=none;fontFamily=Verdana;fontSize=12;edgeStyle=elbowEdgeStyle;elbow=vertical;exitX=0.9;exitY=0.141;exitDx=0;exitDy=0;exitPerimeter=0;align=center;" edge="1" parent="1">
          <mxGeometry x="0.5095" relative="1" as="geometry">
            <mxPoint x="335" y="282" as="sourcePoint" />
            <mxPoint x="673.5" y="280" as="targetPoint" />
            <Array as="points">
              <mxPoint x="451" y="280" />
            </Array>
            <mxPoint as="offset" />
          </mxGeometry>
        </mxCell>
        <mxCell id="4-Hh0vucxxHI_G5QS-2U-20" value="&lt;pre style=&quot;font-size: 9pt; font-family: Menlo, monospace;&quot;&gt;&lt;pre style=&quot;border-color: var(--border-color); font-size: 9pt; font-family: Menlo, monospace;&quot;&gt;/order/order_count&lt;/pre&gt;&lt;/pre&gt;" style="html=1;verticalAlign=bottom;endArrow=block;labelBackgroundColor=none;fontFamily=Verdana;fontSize=12;edgeStyle=elbowEdgeStyle;elbow=vertical;align=center;exitX=0.9;exitY=0.411;exitDx=0;exitDy=0;exitPerimeter=0;entryX=0.1;entryY=0.407;entryDx=0;entryDy=0;entryPerimeter=0;" edge="1" parent="1">
          <mxGeometry x="0.5066" relative="1" as="geometry">
            <mxPoint x="164" y="360.75999999999993" as="sourcePoint" />
            <mxPoint x="500" y="358.99999999999994" as="targetPoint" />
            <Array as="points">
              <mxPoint x="270.75" y="359.92" />
            </Array>
            <mxPoint as="offset" />
          </mxGeometry>
        </mxCell>
        <mxCell id="4-Hh0vucxxHI_G5QS-2U-25" value="" style="html=1;points=[];perimeter=orthogonalPerimeter;rounded=0;shadow=0;comic=0;labelBackgroundColor=none;strokeWidth=1;fontFamily=Verdana;fontSize=12;align=center;" vertex="1" parent="1">
          <mxGeometry x="675" y="180" width="10" height="440" as="geometry" />
        </mxCell>
        <mxCell id="4-Hh0vucxxHI_G5QS-2U-28" value="User-DB" style="shape=datastore;whiteSpace=wrap;html=1;" vertex="1" parent="1">
          <mxGeometry x="650" y="80" width="60" height="60" as="geometry" />
        </mxCell>
        <mxCell id="4-Hh0vucxxHI_G5QS-2U-30" value="" style="endArrow=none;dashed=1;html=1;rounded=0;" edge="1" parent="1">
          <mxGeometry width="50" height="50" relative="1" as="geometry">
            <mxPoint x="848" y="660" as="sourcePoint" />
            <mxPoint x="850" y="140" as="targetPoint" />
          </mxGeometry>
        </mxCell>
        <mxCell id="4-Hh0vucxxHI_G5QS-2U-31" value="" style="html=1;points=[];perimeter=orthogonalPerimeter;rounded=0;shadow=0;comic=0;labelBackgroundColor=none;strokeWidth=1;fontFamily=Verdana;fontSize=12;align=center;" vertex="1" parent="1">
          <mxGeometry x="845" y="180" width="10" height="440" as="geometry" />
        </mxCell>
        <mxCell id="4-Hh0vucxxHI_G5QS-2U-32" value="Order-DB" style="shape=datastore;whiteSpace=wrap;html=1;" vertex="1" parent="1">
          <mxGeometry x="820" y="80" width="60" height="60" as="geometry" />
        </mxCell>
        <mxCell id="4-Hh0vucxxHI_G5QS-2U-38" value="&lt;pre style=&quot;font-family: Menlo, monospace; line-height: 120%;&quot;&gt;&lt;pre style=&quot;border-color: var(--border-color); font-family: Menlo, monospace; line-height: 140%;&quot;&gt;Return 해당 구를 갖고 있는&lt;br&gt;전체 유저의 주문 개수 합산&lt;/pre&gt;&lt;/pre&gt;" style="html=1;verticalAlign=bottom;endArrow=block;labelBackgroundColor=none;fontFamily=Verdana;fontSize=12;edgeStyle=elbowEdgeStyle;elbow=vertical;align=center;" edge="1" parent="1">
          <mxGeometry x="0.4779" y="-1" relative="1" as="geometry">
            <mxPoint x="500.5" y="440.52" as="sourcePoint" />
            <mxPoint x="161.5" y="440.52" as="targetPoint" />
            <Array as="points">
              <mxPoint x="447" y="440.52" />
            </Array>
            <mxPoint x="1" as="offset" />
          </mxGeometry>
        </mxCell>
        <mxCell id="4-Hh0vucxxHI_G5QS-2U-23" value="&lt;pre style=&quot;font-size: 9pt; font-family: Menlo, monospace; line-height: 60%;&quot;&gt;&lt;pre style=&quot;border-color: var(--border-color); font-size: 9pt; font-family: Menlo, monospace;&quot;&gt;Select 해당 구를 갖고 있는&lt;/pre&gt;&lt;pre style=&quot;border-color: var(--border-color); font-size: 9pt; font-family: Menlo, monospace; line-height: 60%;&quot;&gt;전체 유저에 대한 주문 개수 합산&lt;/pre&gt;&lt;/pre&gt;" style="html=1;verticalAlign=bottom;endArrow=block;labelBackgroundColor=none;fontFamily=Verdana;fontSize=12;edgeStyle=elbowEdgeStyle;elbow=vertical;align=center;exitX=0.9;exitY=0.411;exitDx=0;exitDy=0;exitPerimeter=0;entryX=0.1;entryY=0.407;entryDx=0;entryDy=0;entryPerimeter=0;" edge="1" parent="1">
          <mxGeometry x="0.504" relative="1" as="geometry">
            <mxPoint x="509" y="400.87999999999994" as="sourcePoint" />
            <mxPoint x="845" y="399.11999999999995" as="targetPoint" />
            <Array as="points">
              <mxPoint x="615.75" y="400.04" />
            </Array>
            <mxPoint as="offset" />
          </mxGeometry>
        </mxCell>
        <mxCell id="4-Hh0vucxxHI_G5QS-2U-39" value="&lt;pre style=&quot;font-family: Menlo, monospace; line-height: 120%;&quot;&gt;&lt;pre style=&quot;border-color: var(--border-color); font-family: Menlo, monospace; line-height: 140%;&quot;&gt;Return 주문 개수 합산&lt;/pre&gt;&lt;/pre&gt;" style="html=1;verticalAlign=bottom;endArrow=block;labelBackgroundColor=none;fontFamily=Verdana;fontSize=12;edgeStyle=elbowEdgeStyle;elbow=vertical;align=center;" edge="1" parent="1">
          <mxGeometry x="-0.0651" relative="1" as="geometry">
            <mxPoint x="159" y="520" as="sourcePoint" />
            <mxPoint x="-10" y="520" as="targetPoint" />
            <Array as="points">
              <mxPoint x="-10" y="520" />
            </Array>
            <mxPoint as="offset" />
          </mxGeometry>
        </mxCell>
      </root>
    </mxGraphModel>
  </diagram>
</mxfile>
